<?xml version="1.0" encoding="UTF-8"?><svg id="Calque_2" xmlns="http://www.w3.org/2000/svg" width="464.58" height="274.79" viewBox="0 0 464.58 274.79"><defs><style>.cls-1{fill:#ef826b;}.cls-2{fill:#aab5b2;}.cls-3{fill:#3f3f3f;}.cls-4{fill:#57686f;}</style></defs><g id="Calque_1-2"><g><polygon class="cls-2" points="79 46.18 41 62.18 41 16.18 78 3.18 79 46.18"/><polygon class="cls-4" points="41 108.18 3 119.18 4 73.18 41 62.18 41 108.18"/><polygon class="cls-1" points="153 73.18 115 62.18 116 108.18 153 119.18 153 73.18"/><path class="cls-3" d="M78.25,0L0,25.63V235.69H7V121.16l67.75-22.19v175.82h7V98.92l67.75,19.6v8.81h7V25.63L78.25,0ZM42.88,18.95l31.88-10.44V47.95l-31.88,10.44V18.95Zm-4,86.5l-31.88,10.44v-40.49l31.88-10.44v40.49Zm0-45.75l-31.88,10.44V30.71l31.88-10.44V59.7Zm4,44.44V63.65l31.88-10.44v40.49l-31.88,10.44Zm70.75-1.21l-31.88-9.22V53.21l31.88,10.44v39.28Zm0-44.55l-31.88-10.44V8.51l31.88,10.44V58.39Zm35.88,54.93l-31.88-9.22v-39.13l31.88,10.44v37.91Zm0-43.17l-31.88-10.44V20.27l31.88,10.44v39.44Z"/><g><path class="cls-1" d="M115.1,170.27v-30.02h2.33v30.02h-2.33Zm1.5,0v-2.11h16.95v2.11h-16.95Z"/><path class="cls-1" d="M139.8,170.27l12.28-30.02h1.85l12.19,30.02h-2.55l-11.09-27.65h.97l-11.14,27.65h-2.51Zm5.37-8.85v-2.07h15.63v2.07h-15.63Z"/><path class="cls-1" d="M175.45,170.27v-30.02h1.67l13.21,21.66h-1.28l13.21-21.66h1.67v30.02h-2.33v-26.02l.53,.13-11.58,19.06h-1.72l-11.58-19.06,.53-.13v26.02h-2.33Z"/><path class="cls-1" d="M215.82,170.27v-30.02h2.33v30.02h-2.33Zm1.41,0v-2.07h9.99c2.17,0,3.91-.59,5.22-1.78,1.31-1.19,1.96-2.72,1.96-4.6,0-1.23-.29-2.32-.86-3.26-.57-.94-1.36-1.69-2.38-2.25-1.01-.56-2.21-.84-3.59-.84h-10.34v-1.98h9.99c1.79,0,3.21-.5,4.25-1.5,1.04-1,1.56-2.36,1.56-4.09s-.57-3.13-1.72-4.12c-1.14-.98-2.69-1.47-4.62-1.47h-9.46v-2.07h9.51c1.82,0,3.37,.32,4.64,.95,1.28,.63,2.26,1.5,2.95,2.62,.69,1.12,1.04,2.42,1.04,3.92,0,1.7-.45,3.17-1.34,4.4-.9,1.23-2.18,2.13-3.85,2.69l.26-.79c1.97,.56,3.51,1.53,4.64,2.93,1.13,1.39,1.69,3.06,1.69,5,0,1.61-.4,3.05-1.19,4.31-.79,1.26-1.92,2.25-3.37,2.95-1.45,.7-3.19,1.06-5.22,1.06h-9.77Z"/><path class="cls-1" d="M247.08,170.27v-30.02h2.33v30.02h-2.33Zm1.5-27.91v-2.11h17.83v2.11h-17.83Zm0,13.56v-2.07h16.68v2.07h-16.68Zm0,14.35v-2.11h18.05v2.11h-18.05Z"/><path class="cls-1" d="M276.7,170.27v-30.02h2.33v30.02h-2.33Zm1.41-13.78v-1.98h9.29c2.2,0,3.88-.56,5.04-1.67,1.16-1.11,1.74-2.6,1.74-4.45s-.58-3.29-1.74-4.4c-1.16-1.11-2.84-1.67-5.04-1.67h-9.29v-2.07h9.2c1.94,0,3.59,.35,4.97,1.03,1.38,.69,2.44,1.64,3.17,2.86s1.1,2.63,1.1,4.25-.37,3.03-1.1,4.25-1.79,2.16-3.17,2.84c-1.38,.68-3.04,1.01-4.97,1.01h-9.2Zm17.61,13.78l-11.62-14.31,2.33-.62,12.33,14.92h-3.04Z"/><path class="cls-1" d="M303.6,142.36v-2.11h24.3v2.11h-24.3Zm10.96,27.91v-29.19h2.33v29.19h-2.33Z"/></g><g><path class="cls-4" d="M128.7,217.18c-2.14,0-4.14-.39-5.99-1.17-1.85-.78-3.45-1.86-4.8-3.24-1.35-1.38-2.4-3.01-3.15-4.89-.75-1.88-1.12-3.92-1.12-6.12s.38-4.24,1.14-6.12c.76-1.88,1.83-3.52,3.19-4.93,1.36-1.41,2.97-2.5,4.82-3.28,1.85-.78,3.86-1.17,6.03-1.17,2.44,0,4.67,.48,6.69,1.45,2.03,.97,3.67,2.36,4.93,4.18l-1.63,1.63c-1.12-1.61-2.53-2.85-4.25-3.72-1.72-.87-3.63-1.3-5.74-1.3-2.47,0-4.67,.57-6.6,1.72-1.94,1.14-3.45,2.71-4.53,4.71-1.09,2-1.63,4.27-1.63,6.82s.54,4.83,1.63,6.82c1.08,2,2.57,3.55,4.45,4.67,1.88,1.12,4.03,1.67,6.47,1.67s4.43-.48,6.16-1.45c1.73-.97,3.07-2.38,4.03-4.25,.95-1.86,1.44-4.09,1.47-6.67l1.19,.92h-13.25v-2.16h14.48v.4c0,3.29-.58,6.08-1.74,8.39-1.16,2.3-2.79,4.06-4.89,5.26-2.1,1.2-4.56,1.8-7.37,1.8Z"/><path class="cls-4" d="M163.48,217.22c-2.11,0-4-.48-5.66-1.43-1.66-.95-2.97-2.25-3.94-3.9s-1.45-3.51-1.45-5.59v-19.55h2.33v19.37c0,1.79,.38,3.35,1.14,4.69,.76,1.34,1.8,2.36,3.12,3.08,1.32,.72,2.8,1.08,4.45,1.08s3.15-.36,4.45-1.08c1.29-.72,2.32-1.75,3.08-3.08,.76-1.33,1.14-2.88,1.14-4.64v-19.41h2.33v19.59c0,2.08-.48,3.94-1.43,5.57-.95,1.63-2.26,2.92-3.92,3.87-1.66,.95-3.54,1.43-5.66,1.43Z"/><path class="cls-4" d="M185.97,216.78v-30.02h2.33v30.02h-2.33Zm1.5,0v-2.11h16.95v2.11h-16.95Z"/><path class="cls-4" d="M214.15,216.78v-30.02h2.33v30.02h-2.33Zm1.5,0v-2.11h16.95v2.11h-16.95Z"/><path class="cls-4" d="M242.32,216.78v-30.02h2.33v30.02h-2.33Z"/><path class="cls-4" d="M266.22,216.78l-11.89-30.02h2.55l10.79,27.6h-.97l10.87-27.6h2.47l-11.93,30.02h-1.89Z"/><path class="cls-4" d="M289.78,216.78v-30.02h2.33v30.02h-2.33Zm1.5-27.91v-2.11h17.83v2.11h-17.83Zm0,13.56v-2.07h16.68v2.07h-16.68Zm0,14.35v-2.11h18.05v2.11h-18.05Z"/><path class="cls-4" d="M319.4,216.78v-30.02h2.33v30.02h-2.33Zm1.41-13.78v-1.98h9.29c2.2,0,3.88-.56,5.04-1.67,1.16-1.11,1.74-2.6,1.74-4.45s-.58-3.29-1.74-4.4c-1.16-1.11-2.84-1.67-5.04-1.67h-9.29v-2.07h9.2c1.94,0,3.59,.35,4.97,1.03,1.38,.69,2.44,1.64,3.17,2.86s1.1,2.63,1.1,4.25-.37,3.03-1.1,4.25-1.79,2.16-3.17,2.84c-1.38,.68-3.04,1.01-4.97,1.01h-9.2Zm17.61,13.78l-11.62-14.31,2.33-.62,12.33,14.92h-3.04Z"/><path class="cls-4" d="M346.3,188.87v-2.11h24.3v2.11h-24.3Zm10.96,27.91v-29.19h2.33v29.19h-2.33Z"/></g><g><path class="cls-2" d="M123.38,263.74c-2.32,0-4.33-.45-6.03-1.34-1.7-.9-3.17-2.14-4.4-3.72l1.63-1.58c1.14,1.56,2.44,2.69,3.9,3.41,1.45,.72,3.13,1.08,5.04,1.08,2.05,0,3.73-.48,5.02-1.45,1.29-.97,1.94-2.32,1.94-4.05,0-1.32-.29-2.39-.86-3.21-.57-.82-1.31-1.5-2.22-2.02-.91-.53-1.92-.99-3.02-1.39s-2.2-.81-3.3-1.23c-1.1-.43-2.11-.96-3.04-1.61-.92-.65-1.67-1.46-2.22-2.44-.56-.98-.84-2.25-.84-3.81s.37-2.85,1.12-3.98c.75-1.13,1.78-2,3.08-2.62,1.31-.62,2.81-.92,4.51-.92,1.94,0,3.67,.37,5.2,1.12,1.53,.75,2.8,1.8,3.83,3.15l-1.63,1.58c-.97-1.2-2.05-2.12-3.24-2.75-1.19-.63-2.59-.95-4.2-.95-1.88,0-3.4,.46-4.56,1.39-1.16,.92-1.74,2.21-1.74,3.85,0,1.23,.28,2.23,.84,2.99,.56,.76,1.3,1.4,2.22,1.92,.92,.51,1.94,.96,3.04,1.34,1.1,.38,2.19,.79,3.28,1.23,1.08,.44,2.09,.99,3.02,1.65,.92,.66,1.67,1.5,2.22,2.53,.56,1.03,.84,2.33,.84,3.92,0,2.55-.84,4.51-2.53,5.88-1.69,1.36-3.98,2.05-6.89,2.05Z"/><path class="cls-2" d="M139.93,263.29l12.28-30.02h1.85l12.19,30.02h-2.55l-11.09-27.65h.97l-11.14,27.65h-2.51Zm5.37-8.85v-2.07h15.63v2.07h-15.63Z"/><path class="cls-2" d="M175.59,263.29v-30.02h2.33v30.02h-2.33Z"/><path class="cls-2" d="M189.8,263.29v-30.02h1.67l.66,2.86v27.16h-2.33Zm20.78,0l-19.46-26.9,.35-3.13,19.5,26.9-.4,3.13Zm0,0l-.66-2.73v-27.29h2.33v30.02h-1.67Z"/><path class="cls-2" d="M221.94,235.39v-2.11h24.3v2.11h-24.3Zm10.96,27.91v-29.19h2.33v29.19h-2.33Z"/><path class="cls-2" d="M251.13,253.26v-2.16h13.6v2.16h-13.6Z"/><path class="cls-2" d="M271.51,263.29l12.28-30.02h1.85l12.19,30.02h-2.55l-11.09-27.65h.97l-11.14,27.65h-2.51Zm5.37-8.85v-2.07h15.63v2.07h-15.63Z"/><path class="cls-2" d="M307.17,263.29v-30.02h2.33v30.02h-2.33Zm1.41-13.78v-1.98h9.29c2.2,0,3.88-.56,5.04-1.67,1.16-1.11,1.74-2.6,1.74-4.45s-.58-3.29-1.74-4.4c-1.16-1.11-2.84-1.67-5.04-1.67h-9.29v-2.07h9.2c1.94,0,3.59,.35,4.97,1.03,1.38,.69,2.44,1.64,3.17,2.86s1.1,2.63,1.1,4.25-.37,3.03-1.1,4.25-1.79,2.16-3.17,2.84c-1.38,.68-3.04,1.01-4.97,1.01h-9.2Zm17.61,13.78l-11.62-14.31,2.33-.62,12.33,14.92h-3.04Z"/><path class="cls-2" d="M338.2,263.29v-30.02h1.67l.66,2.86v27.16h-2.33Zm20.78,0l-19.46-26.9,.35-3.13,19.5,26.9-.4,3.13Zm0,0l-.66-2.73v-27.29h2.33v30.02h-1.67Z"/><path class="cls-2" d="M370.33,263.29l12.28-30.02h1.85l12.19,30.02h-2.55l-11.09-27.65h.97l-11.14,27.65h-2.51Zm5.37-8.85v-2.07h15.63v2.07h-15.63Z"/><path class="cls-2" d="M416.29,263.74c-2.11,0-4-.48-5.66-1.43-1.66-.95-2.97-2.25-3.94-3.9s-1.45-3.51-1.45-5.59v-19.55h2.33v19.37c0,1.79,.38,3.35,1.14,4.69,.76,1.34,1.8,2.36,3.12,3.08,1.32,.72,2.8,1.08,4.45,1.08s3.15-.36,4.45-1.08c1.29-.72,2.32-1.75,3.08-3.08,.76-1.33,1.14-2.88,1.14-4.64v-19.41h2.33v19.59c0,2.08-.48,3.94-1.43,5.57-.95,1.63-2.26,2.92-3.92,3.87-1.66,.95-3.54,1.43-5.66,1.43Z"/><path class="cls-2" d="M438.79,263.29v-30.02h2.33v30.02h-2.33Zm1.23,0v-2.16h9.33c2.49,0,4.71-.55,6.65-1.65,1.94-1.1,3.45-2.62,4.53-4.56,1.08-1.94,1.63-4.17,1.63-6.69s-.54-4.7-1.63-6.63c-1.09-1.92-2.6-3.43-4.53-4.53-1.94-1.1-4.15-1.65-6.65-1.65h-9.2v-2.16h9.24c2.2,0,4.23,.37,6.08,1.12,1.85,.75,3.46,1.79,4.82,3.13,1.36,1.34,2.42,2.92,3.17,4.75,.75,1.83,1.12,3.84,1.12,6.01s-.37,4.13-1.12,5.96c-.75,1.83-1.8,3.43-3.15,4.78-1.35,1.35-2.95,2.4-4.8,3.15s-3.86,1.12-6.03,1.12h-9.46Z"/></g></g></g></svg>