<?xml version="1.0" encoding="UTF-8"?><svg id="Calque_2" xmlns="http://www.w3.org/2000/svg" width="134.27" height="66.72" viewBox="0 0 134.27 66.72"><defs><style>.cls-1{fill:#ef826b;}.cls-2{fill:#aab5b2;}.cls-3{fill:#3f3f3f;}.cls-4{fill:#57686f;}</style></defs><g id="Calque_1-2"><g><g><path class="cls-1" d="M54.46,47.87V17.85h2.33v30.02h-2.33Zm1.5,0v-2.11h16.95v2.11h-16.95Z"/><path class="cls-4" d="M93.07,48.26c-2.14,0-4.14-.39-5.99-1.17-1.85-.78-3.45-1.86-4.8-3.24-1.35-1.38-2.4-3.01-3.15-4.89-.75-1.88-1.12-3.92-1.12-6.12s.38-4.24,1.14-6.12c.76-1.88,1.83-3.52,3.19-4.93,1.36-1.41,2.97-2.5,4.82-3.28,1.85-.78,3.86-1.17,6.03-1.17,2.44,0,4.67,.48,6.69,1.45,2.03,.97,3.67,2.36,4.93,4.18l-1.63,1.63c-1.12-1.61-2.53-2.85-4.25-3.72-1.72-.87-3.63-1.3-5.74-1.3-2.47,0-4.67,.57-6.6,1.72-1.94,1.14-3.45,2.71-4.53,4.71-1.09,2-1.63,4.27-1.63,6.82s.54,4.83,1.63,6.82c1.08,2,2.57,3.55,4.45,4.67,1.88,1.12,4.03,1.67,6.47,1.67s4.43-.48,6.16-1.45c1.73-.97,3.07-2.38,4.03-4.25,.95-1.86,1.44-4.09,1.47-6.67l1.19,.92h-13.25v-2.16h14.48v.4c0,3.29-.58,6.08-1.74,8.39-1.16,2.3-2.79,4.06-4.89,5.26-2.1,1.2-4.56,1.8-7.37,1.8Z"/><path class="cls-2" d="M124.85,48.31c-2.32,0-4.33-.45-6.03-1.34-1.7-.9-3.17-2.14-4.4-3.72l1.63-1.58c1.14,1.56,2.44,2.69,3.9,3.41,1.45,.72,3.13,1.08,5.04,1.08,2.05,0,3.73-.48,5.02-1.45,1.29-.97,1.94-2.32,1.94-4.05,0-1.32-.29-2.39-.86-3.21-.57-.82-1.31-1.5-2.22-2.02-.91-.53-1.92-.99-3.02-1.39s-2.2-.81-3.3-1.23c-1.1-.43-2.11-.96-3.04-1.61-.92-.65-1.67-1.46-2.22-2.44-.56-.98-.84-2.25-.84-3.81s.37-2.85,1.12-3.98c.75-1.13,1.78-2,3.08-2.62,1.31-.62,2.81-.92,4.51-.92,1.94,0,3.67,.37,5.2,1.12,1.53,.75,2.8,1.8,3.83,3.15l-1.63,1.58c-.97-1.2-2.05-2.12-3.24-2.75-1.19-.63-2.59-.95-4.2-.95-1.88,0-3.4,.46-4.56,1.39-1.16,.92-1.74,2.21-1.74,3.85,0,1.23,.28,2.23,.84,2.99,.56,.76,1.3,1.4,2.22,1.92,.92,.51,1.94,.96,3.04,1.34,1.1,.38,2.19,.79,3.28,1.23,1.08,.44,2.09,.99,3.02,1.65,.92,.66,1.67,1.5,2.22,2.53,.56,1.03,.84,2.33,.84,3.92,0,2.55-.84,4.51-2.53,5.88-1.69,1.36-3.98,2.05-6.89,2.05Z"/></g><g><polygon class="cls-2" points="19.18 11.21 9.96 15.1 9.96 3.93 18.94 .77 19.18 11.21"/><polygon class="cls-4" points="9.96 26.27 .73 28.94 .97 17.77 9.96 15.1 9.96 26.27"/><polygon class="cls-1" points="37.15 17.77 27.92 15.1 28.17 26.27 37.15 28.94 37.15 17.77"/><path class="cls-3" d="M19,0L0,6.22V57.23H1.7V29.42l16.45-5.39v42.69h1.7V24.03l16.45,5.39v27.81h1.7V6.22L19,0ZM1.7,18.31l7.89-2.59v9.83l-7.89,2.59v-9.83ZM19.85,2.07l7.86,2.58V14.22l-7.86-2.58V2.07Zm-1.7,9.58l-7.83,2.57V4.63l7.83-2.57V11.64Zm-7.83,3.84l7.83-2.57v9.83l-7.83,2.57V15.49Zm9.53-2.57l7.86,2.58v9.83l-7.86-2.58V12.92Zm8.59,2.81l7.86,2.58v9.83l-7.86-2.58V15.73Zm7.86,1.3l-7.86-2.58V4.88l7.86,2.58v9.58ZM9.59,4.87V14.45l-7.89,2.59V7.46l7.89-2.59Z"/></g></g></g></svg>